PathFileType	4	(X/Y/Z)	W10_1_OpenSim.trc																																																																																																																						
DataRate	CameraRate	NumFrames	NumMarkers	Units	OrigDataRate	OrigDataStartFrame	OrigNumFrames																																																																																																																		
100	100	6	40	mm	100	2626	3000																																																																																																																		
Frame#	Time	R.ASIS			R.PSIS			S2			L.PSIS			L.ASIS			R.TH1			R.TH2			R.TH3			R.MKnee			R.Knee			R.SH1			R.SH2			R.SH3			R.SH4			R.Ankle			R.MAnkle			R.Heel			R.MT5			R.MT1			L.TH1			L.TH2			L.TH3			L.TH4			L.MKnee			L.Knee			L.SH1			L.SH2			L.SH3			L.Ankle			L.MAnkle			L.Heel			L.MT5			L.MT1			R.Acr			L.Acr			C7			T10			Clav			Sternum			R.Back		
		X1	Y1	Z1	X2	Y2	Z2	X3	Y3	Z3	X4	Y4	Z4	X5	Y5	Z5	X6	Y6	Z6	X7	Y7	Z7	X8	Y8	Z8	X9	Y9	Z9	X10	Y10	Z10	X11	Y11	Z11	X12	Y12	Z12	X13	Y13	Z13	X14	Y14	Z14	X15	Y15	Z15	X16	Y16	Z16	X17	Y17	Z17	X18	Y18	Z18	X19	Y19	Z19	X20	Y20	Z20	X21	Y21	Z21	X22	Y22	Z22	X23	Y23	Z23	X24	Y24	Z24	X25	Y25	Z25	X26	Y26	Z26	X27	Y27	Z27	X28	Y28	Z28	X29	Y29	Z29	X30	Y30	Z30	X31	Y31	Z31	X32	Y32	Z32	X33	Y33	Z33	X34	Y34	Z34	X35	Y35	Z35	X36	Y36	Z36	X37	Y37	Z37	X38	Y38	Z38	X39	Y39	Z39	X40	Y40	Z40
2626	26.25	1045.8219	1042.2878	-429.2333	851.2979	1044.2585	-517.2151	841.7627	1042.3351	-562.165	846.4821	1051.0721	-612.0034	1019.8264	1054.2875	-722.3181	1049.3281	711.3318	-408.9181	970.1347	699.1624	-393.4773	986.3796	590.3087	-400.5999	1016.8859	468.4363	-520.6071	1009.9046	480.9352	-402.831	902.931	356.048	-390.2987	822.8959	277.0482	-401.8942	845.9561	415.9283	-385.688	766.376	334.3029	-387.4912	658.4069	217.1232	-387.9655	697.5245	194.4165	-477.533	598.8997	246.6752	-449.9137	680.27	98.5964	-355.7656	713.7483	61.4476	-442.2918	1083.1374	770.3843	-739.2264	1105.1006	664.6068	-725.6644	1002.1165	748.7883	-745.1637	1028.1118	643.5897	-725.705	1114.9624	514.9974	-599.0168	1112.267	518.4855	-709.0232	1120.7139	383.1402	-725.5377	1038.8527	385.951	-730.1694	1038.0062	276.2936	-722.0835	1080.7902	79.8892	-717.5034	1115.9749	90.7598	-620.1101	1019.1376	39.8196	-658.7277	1188.5438	32.304	-740.0004	1233.7319	44.5763	-642.6992	1008.0496	1440.3525	-407.6656	944.9452	1436.3182	-732.8936	921.5644	1485.7978	-562.4409	883.958	1157.6813	-557.4908	1052.9694	1386.2198	-583.009	1080.5073	1244.1519	-578.5743	853.4582	1386.7849	-464.4638
2627	26.26	1044.5056	1043.3993	-430.6158	850.4938	1045.0618	-519.2101	841.0182	1043.3024	-564.2289	845.8509	1052.2317	-614.0192	1019.4935	1055.6596	-724.2269	1055.1772	714.113	-410.5977	976.315	699.6425	-395.7254	995.734	591.2684	-402.6756	1029.625	470.842	-522.5676	1022.2541	483.1043	-404.4777	914.5964	359.7357	-392.4914	833.1279	282.2232	-404.3293	858.652	420.6475	-387.6336	777.7483	340.2618	-389.5236	667.9262	226.795	-390.6428	706.8808	201.8975	-479.948	609.8315	258.2907	-453.2111	685.3813	107.4185	-357.9032	718.3196	67.2485	-443.3117	1080.8484	770.4253	-740.7617	1101.6803	664.4474	-727.1244	999.6666	749.6774	-746.7576	1024.5127	644.2328	-727.1719	1110.0663	514.895	-600.1415	1107.1681	518.1579	-710.264	1113.9775	382.636	-726.4435	1032.2102	386.3111	-730.9424	1030.1871	276.6723	-722.6265	1070.8185	79.9533	-717.5955	1106.0493	90.8124	-620.2363	1009.1843	39.8346	-658.7732	1178.5369	32.3608	-740.0714	1223.7365	44.6128	-642.757	1006.9638	1441.3662	-409.2956	945.8112	1437.7833	-734.8328	921.4352	1487.2631	-564.52	883.1503	1159.1106	-559.816	1052.6764	1387.366	-584.4795	1079.801	1245.1954	-580.0038	852.5093	1388.33	-467.033
2628	26.27	1042.9966	1044.5891	-431.8002	849.5801	1046.0561	-521.1235	840.1558	1044.4193	-566.2059	845.1005	1053.4902	-615.9537	1019.0389	1056.985	-725.988	1060.6245	717.3174	-412.1013	982.1249	700.5623	-397.9206	1004.6942	592.7579	-404.6937	1041.968	473.8062	-524.4796	1034.1978	485.8204	-406.0631	926.2395	363.6162	-394.6854	843.703	287.2456	-406.7931	871.0674	425.3029	-389.7363	789.2141	345.8444	-391.704	678.0121	235.2082	-393.4392	717.0426	208.7623	-482.5057	620.9331	267.7072	-456.5739	692.7944	115.4392	-360.1692	725.5497	73.0858	-444.6052	1078.38	770.4764	-742.1008	1098.0703	664.2893	-728.4968	997.0565	750.6005	-748.2971	1020.7136	644.9019	-728.6351	1104.7712	514.7413	-601.2047	1101.7601	517.8422	-711.4444	1107.08	382.1771	-727.3202	1025.4041	386.6495	-731.8369	1022.2667	277.0473	-723.3041	1060.8872	79.9799	-717.6906	1096.1124	90.8885	-620.3768	999.2341	39.8709	-658.8258	1168.5393	32.3933	-740.1482	1213.7238	44.6456	-642.8144	1005.7871	1442.3756	-410.8003	946.6894	1439.218	-736.6326	921.2784	1488.7532	-566.5119	882.2291	1160.5865	-562.0534	1052.3328	1388.4911	-585.8102	1078.9553	1246.1927	-581.2628	851.4872	1389.9192	-469.5307
2629	26.28	1041.355	1045.9022	-432.8802	848.5765	1047.2477	-522.9614	839.199	1045.684	-568.0954	844.2466	1054.8408	-617.8123	1018.4713	1058.2664	-727.6242	1065.6794	720.8876	-413.4194	987.5748	701.8817	-400.0048	1013.2465	594.736	-406.5795	1053.9034	477.2489	-526.2646	1045.6882	489.0289	-407.5438	937.7789	367.6433	-396.8038	854.5651	292.0066	-409.1902	883.0846	429.8343	-392.0038	800.66	350.9611	-394.0287	688.615	242.1285	-396.3048	727.8847	214.8389	-485.1668	632.009	274.739	-459.8413	702.5151	122.3772	-362.4957	735.4168	78.7123	-446.2006	1075.7515	770.5339	-743.2854	1094.2783	664.1344	-729.7999	994.2907	751.5528	-749.7902	1016.7237	645.5953	-730.0869	1099.0802	514.5605	-602.2258	1096.0632	517.5449	-712.575	1100.0288	381.7639	-728.1682	1018.4338	386.9714	-732.8186	1014.2344	277.4243	-724.0817	1050.9968	79.9775	-717.785	1086.1752	90.9827	-620.5237	989.2902	39.9343	-658.8839	1158.5535	32.4082	-740.232	1203.7063	44.6726	-642.8757	1004.5144	1443.4094	-412.1842	947.5579	1440.6388	-738.2758	921.0797	1490.2587	-568.408	881.2127	1162.0997	-564.2112	1051.9395	1389.6107	-587.0015	1078.026	1247.1831	-582.3581	850.3962	1391.5347	-471.952
2630	26.29	1039.6544	1047.3701	-433.9416	847.4999	1048.6154	-524.7198	838.1643	1047.0752	-569.8901	843.2987	1056.2643	-619.5906	1017.7952	1059.5001	-729.1581	1070.3647	724.76	-414.5464	992.6935	703.5556	-401.919	1021.3922	597.1552	-408.2649	1065.4155	481.0974	-527.8607	1056.695	492.6614	-408.8832	949.1759	371.7329	-398.7878	865.6931	296.3829	-411.4374	894.6441	434.1477	-394.4103	812.0321	355.4922	-396.4667	699.7656	247.3981	-399.1727	739.3427	219.9521	-487.882	643.044	279.3706	-462.8759	714.4141	128.0063	-364.8343	747.7225	83.8354	-448.0937	1072.9615	770.5859	-744.3563	1090.2926	663.9772	-731.0423	991.3532	752.5215	-751.2306	1012.535	646.3077	-731.5045	1093.0264	514.3782	-603.2203	1090.0825	517.2677	-713.6634	1092.7966	381.3946	-728.9806	1011.2746	387.2809	-733.8243	1006.0587	277.807	-724.8958	1041.1385	79.9575	-717.8701	1076.2473	91.0853	-620.6652	979.3542	40.0265	-658.943	1148.5764	32.4103	-740.3184	1193.6929	44.6917	-642.9416	1003.1465	1444.4874	-413.455	948.3971	1442.0649	-739.7605	920.8292	1491.7704	-570.2063	880.1199	1163.6379	-566.2949	1051.4978	1390.7358	-588.0588	1077.0608	1248.1976	-583.3038	849.2445	1393.162	-474.2935
2631	26.3	1037.9675	1049.0017	-435.05	846.3631	1050.1167	-526.3842	837.0607	1048.5568	-571.5768	842.2626	1057.7322	-621.2747	1017.0106	1060.6776	-730.6098	1074.7069	728.8723	-415.4826	997.5137	705.5427	-403.616	1029.1357	599.9665	-409.6998	1076.477	485.2874	-529.2288	1067.1993	496.6424	-410.0563	960.4318	375.7658	-400.5948	877.1022	300.2401	-413.4701	905.743	438.1138	-396.8892	823.3324	359.2899	-398.9523	711.5286	250.9287	-401.9579	751.4108	223.9276	-490.586	654.1707	281.7115	-465.5884	728.231	132.1503	-367.1489	762.1278	88.1457	-450.2366	1069.9954	770.6158	-745.3536	1086.088	663.8078	-732.2253	988.2167	753.4908	-752.605	1008.1296	647.0316	-732.8591	1086.673	514.2088	-604.1944	1083.8136	517.0096	-714.7165	1085.3406	381.0657	-729.7499	1003.892	387.5823	-734.7809	997.7007	278.1976	-725.6739	1031.2954	79.9299	-717.9349	1066.33	91.1872	-620.7893	969.4235	40.1453	-658.9991	1138.6023	32.4032	-740.402	1183.6849	44.7017	-643.0098	1001.6897	1445.6174	-414.6225	949.1885	1443.5145	-741.1009	920.524	1493.2798	-571.91	878.9692	1165.1868	-568.3078	1051.0076	1391.8724	-588.9934	1076.0878	1249.2548	-584.1211	848.0429	1394.7895	-476.5541
